<svg width="1728" height="1117" viewBox="0 0 1728 1117" fill="none" xmlns="http://www.w3.org/2000/svg">
<g clip-path="url(#clip0_21_123)">
<path d="M-115.213 558C7.78711 558 191.787 809 477.287 809C1071.79 809 1102.29 517 2061.79 517" stroke="url(#paint0_linear_21_123)"/>
<path d="M-136.213 541C-13.2129 541 231.287 795.5 516.787 795.5C1111.29 795.5 1202.79 574 2112.79 662.5" stroke="url(#paint1_linear_21_123)"/>
<path d="M-132.431 544C-9.48508 547.658 227.337 809.318 512.711 817.809C1106.95 835.492 1205 616.811 2111.96 732.338" stroke="url(#paint2_linear_21_123)"/>
<path d="M-93.2129 562.429C29.7612 564.952 187.847 790.571 473.287 796.429C1067.66 808.626 1105.26 519.565 2064.55 539.251" stroke="url(#paint3_linear_21_123)"/>
<path d="M-100.213 566.783C22.5398 574.577 195.678 758.897 480.604 776.988C1073.91 814.66 1122.85 525.179 2080.42 585.98" stroke="url(#paint4_linear_21_123)"/>
<path d="M-100.213 566.783C22.5397 574.577 195.678 758.897 480.604 776.988C1073.91 814.66 1005 511.5 1967.5 496.5" stroke="url(#paint5_linear_21_123)"/>
</g>
<defs>
<linearGradient id="paint0_linear_21_123" x1="973.287" y1="517" x2="973.287" y2="809" gradientUnits="userSpaceOnUse">
<stop stop-color="#00D9CC"/>
<stop offset="0.355" stop-color="#00D9CC" stop-opacity="0.3"/>
<stop offset="0.82" stop-color="#00D9CC"/>
<stop offset="1" stop-color="#00D9CC" stop-opacity="0.2"/>
</linearGradient>
<linearGradient id="paint1_linear_21_123" x1="988.287" y1="541" x2="988.287" y2="795.5" gradientUnits="userSpaceOnUse">
<stop stop-color="#00D9CC"/>
<stop offset="0.355" stop-color="#00D9CC" stop-opacity="0.3"/>
<stop offset="0.82" stop-color="#00D9CC"/>
<stop offset="1" stop-color="#00D9CC" stop-opacity="0.2"/>
</linearGradient>
<linearGradient id="paint2_linear_21_123" x1="991.572" y1="577.446" x2="984.002" y2="831.833" gradientUnits="userSpaceOnUse">
<stop stop-color="#00D9CC"/>
<stop offset="0.355" stop-color="#00D9CC" stop-opacity="0.3"/>
<stop offset="0.82" stop-color="#00D9CC"/>
<stop offset="1" stop-color="#00D9CC" stop-opacity="0.2"/>
</linearGradient>
<linearGradient id="paint3_linear_21_123" x1="986.362" y1="517.125" x2="980.417" y2="806.835" gradientUnits="userSpaceOnUse">
<stop stop-color="#00D9CC"/>
<stop offset="0.355" stop-color="#00D9CC" stop-opacity="0.3"/>
<stop offset="0.82" stop-color="#00D9CC"/>
<stop offset="1" stop-color="#00D9CC" stop-opacity="0.2"/>
</linearGradient>
<linearGradient id="paint4_linear_21_123" x1="993.876" y1="516.99" x2="975.373" y2="808.403" gradientUnits="userSpaceOnUse">
<stop stop-color="#00D9CC"/>
<stop offset="0.355" stop-color="#00D9CC" stop-opacity="0.3"/>
<stop offset="0.82" stop-color="#00D9CC"/>
<stop offset="1" stop-color="#00D9CC" stop-opacity="0.2"/>
</linearGradient>
<linearGradient id="paint5_linear_21_123" x1="993.875" y1="516.99" x2="975.372" y2="808.403" gradientUnits="userSpaceOnUse">
<stop stop-color="#00D9CC" stop-opacity="0.2"/>
<stop offset="0.525" stop-color="#00D9CC"/>
<stop offset="1" stop-color="#00D9CC" stop-opacity="0.2"/>
</linearGradient>
<clipPath id="clip0_21_123">
<rect width="2125" height="429" fill="white" transform="translate(-140 448)"/>
</clipPath>
</defs>
</svg>
