<?xml version="1.0" encoding="UTF-8"?>
<svg id="Layer_2" data-name="Layer 2" xmlns="http://www.w3.org/2000/svg" viewBox="0 0 418.44 106.53">
  <defs>
    <style>
      .cls-1 {
        fill: #00d9cc;
        stroke-width: 0px;
      }
    </style>
  </defs>
  <g id="Layer_1-2" data-name="Layer 1">
    <g>
      <path class="cls-1" d="m0,104.91V1.18h20.07v103.73H0ZM14.75,18.89V1.18h54.74v17.71H14.75Zm0,43.53v-17.71h52.23v17.71H14.75Z"/>
      <path class="cls-1" d="m92.95,22.13c-3.15,0-5.75-1.06-7.82-3.17-2.07-2.11-3.1-4.74-3.1-7.89s1.03-5.66,3.1-7.82c2.07-2.16,4.67-3.25,7.82-3.25s5.88,1.08,7.89,3.25c2.01,2.17,3.02,4.77,3.02,7.82s-1.01,5.78-3.02,7.89c-2.02,2.12-4.65,3.17-7.89,3.17Zm-9.89,82.77V33.64h19.62v71.27h-19.62Z"/>
      <path class="cls-1" d="m119.8,104.91V33.64h19.33v71.27h-19.33Zm46.33,0v-42.05c0-4.13-1.28-7.35-3.84-9.66-2.56-2.31-5.75-3.47-9.59-3.47-2.56,0-4.85.52-6.86,1.55-2.02,1.03-3.64,2.53-4.87,4.5-1.23,1.97-1.84,4.38-1.84,7.23l-7.52-3.84c0-5.51,1.2-10.28,3.61-14.31,2.41-4.03,5.68-7.16,9.81-9.37s8.8-3.32,14.02-3.32c4.92,0,9.39,1.11,13.43,3.32,4.03,2.21,7.23,5.31,9.59,9.3,2.36,3.98,3.54,8.73,3.54,14.24v45.89h-19.48Zm46.48,0v-42.05c0-4.13-1.28-7.35-3.84-9.66-2.56-2.31-5.71-3.47-9.44-3.47-2.66,0-4.99.52-7.01,1.55-2.02,1.03-3.64,2.53-4.87,4.5-1.23,1.97-1.84,4.38-1.84,7.23l-11.07-2.8c.3-5.8,1.79-10.77,4.5-14.9,2.7-4.13,6.22-7.35,10.55-9.66,4.33-2.31,9.15-3.47,14.46-3.47s10.08,1.11,14.31,3.32c4.23,2.21,7.6,5.39,10.11,9.52s3.76,9.1,3.76,14.9v45h-19.62Z"/>
      <path class="cls-1" d="m281.81,106.53c-7.48,0-14.14-1.62-19.99-4.87-5.85-3.25-10.45-7.67-13.8-13.28-3.35-5.61-5.02-12-5.02-19.18s1.65-13.43,4.94-19.03c3.29-5.61,7.79-10.03,13.5-13.28,5.7-3.25,12.1-4.87,19.18-4.87,6.69,0,12.69,1.53,18,4.57,5.31,3.05,9.44,7.28,12.39,12.69,2.95,5.41,4.43,11.56,4.43,18.44,0,1.28-.05,2.58-.15,3.91-.1,1.33-.35,2.78-.74,4.35l-60.05.15v-14.46l51.05-.15-7.97,6.05c-.1-4.23-.84-7.77-2.21-10.62-1.38-2.85-3.3-5.02-5.75-6.49-2.46-1.48-5.51-2.21-9.15-2.21-3.84,0-7.18.84-10.03,2.51-2.85,1.67-5.04,4.06-6.57,7.16-1.53,3.1-2.29,6.76-2.29,10.99s.81,8.09,2.43,11.29c1.62,3.2,3.96,5.63,7.01,7.3,3.05,1.67,6.59,2.51,10.62,2.51,3.64,0,6.94-.59,9.89-1.77,2.95-1.18,5.51-3.05,7.67-5.61l11.51,11.51c-3.64,4.13-7.92,7.23-12.84,9.3-4.92,2.07-10.28,3.1-16.08,3.1Z"/>
      <path class="cls-1" d="m352.19,106.53c-4.13,0-8.14-.52-12.02-1.55-3.89-1.03-7.45-2.56-10.7-4.57-3.25-2.02-6.05-4.4-8.41-7.16l11.66-11.66c2.36,2.85,5.16,4.97,8.41,6.34,3.25,1.38,6.79,2.07,10.62,2.07,3.15,0,5.56-.47,7.23-1.4,1.67-.93,2.51-2.24,2.51-3.91,0-1.97-.89-3.47-2.66-4.5s-4.01-1.94-6.71-2.73c-2.71-.79-5.58-1.62-8.63-2.51-3.05-.89-5.93-2.09-8.63-3.62-2.71-1.52-4.94-3.66-6.71-6.42-1.77-2.75-2.66-6.29-2.66-10.62s1.13-8.48,3.39-11.88c2.26-3.39,5.46-6,9.59-7.82,4.13-1.82,9-2.73,14.61-2.73,5.9,0,11.24,1.01,16.01,3.02,4.77,2.02,8.73,5.09,11.88,9.22l-11.66,11.8c-2.17-2.56-4.6-4.45-7.3-5.68-2.71-1.23-5.58-1.84-8.63-1.84s-5.16.44-6.64,1.33c-1.48.89-2.21,2.12-2.21,3.69,0,1.77.83,3.12,2.51,4.06,1.67.94,3.88,1.8,6.64,2.58,2.75.79,5.63,1.65,8.63,2.58,3,.94,5.85,2.24,8.56,3.91,2.7,1.67,4.92,3.89,6.64,6.64,1.72,2.75,2.58,6.3,2.58,10.62,0,6.99-2.51,12.52-7.52,16.6-5.02,4.08-11.8,6.12-20.36,6.12Z"/>
      <path class="cls-1" d="m406.34,106.53c-3.64,0-6.59-1.21-8.85-3.61-2.26-2.41-3.39-5.33-3.39-8.78s1.13-6.47,3.39-8.78c2.26-2.31,5.21-3.47,8.85-3.47,3.44,0,6.32,1.16,8.63,3.47,2.31,2.31,3.47,5.24,3.47,8.78s-1.16,6.37-3.47,8.78c-2.31,2.41-5.19,3.61-8.63,3.61Z"/>
    </g>
  </g>
</svg>